<?xml version="1.0" encoding="UTF-8"?>
<svg id="Layer_1" xmlns="http://www.w3.org/2000/svg" version="1.1" viewBox="0 0 87.6 80.5">
  <!-- Generator: Adobe Illustrator 30.2.1, SVG Export Plug-In . SVG Version: 2.1.1 Build 1)  -->
  <defs>
    <style>
      .st0 {
        fill: #2d1478;
      }
    </style>
  </defs>
  <path class="st0" d="M68.9,33.7l5.7-5.1v-7.5h-9.1v-3.9h22.2v3.9h-9v7.5l5.7,5.2-2.7,2.9-5.1-4.6-5,4.6-2.7-3ZM76.6,13.1c-3.3,0-6-2.6-6-5.9s2.7-6,6-6,6,2.7,6,6-2.7,5.9-6,5.9ZM76.6,5.3c-1,0-1.9.9-1.9,2s.9,2,1.9,2,2-1,2-2-.9-2-2-2ZM23.9,21.1v-8.5h-8.4v-3.9h8.4V0h4.1v21.1h-4.1ZM6,20.4c-3.3,0-6-2.6-6-5.9s2.7-6,6-6,6,2.7,6,6-2.7,5.9-6,5.9ZM6,12.5c-1,0-1.9.9-1.9,2s.9,2,1.9,2,2-.9,2-2-.9-2-2-2ZM52.5,21.1V0h4.1v8.7h7v3.9h-7v8.5h-4.1ZM32.4,21.1V4.3h4v5.5h5.6v-5.5h4v16.8s-13.6,0-13.6,0ZM42,17.2v-3.4h-5.6v3.4h5.6ZM49.5,64.8v-21.1h4.1v21.1h-4.1ZM28.2,64.8v-3.9h2.5v-4.6h-2.5v-3.9h16.8v3.9h-2.4v4.6h2.4v3.9h-16.8ZM38.5,61v-4.6h-3.8v4.6h3.8ZM76.6,80.5c-3.3,0-6-2.6-6-5.9s2.7-6,6-6,6,2.7,6,6-2.7,5.9-6,5.9ZM76.6,72.7c-1,0-1.9.9-1.9,2s.9,2,1.9,2,2-1,2-2-.9-2-2-2ZM78.7,64.8v-21.1h4.1v21.1h-4.1ZM56.9,61.7l5.7-5.1v-5.8h4.1v5.8l5.7,5.2-2.7,2.9-5.1-4.6-5,4.6-2.7-3h0Z"/>
</svg>